# xmcd CD database file
#
# Track frame offsets:
#	150
#	19229
#	35366
#	51896
#	67638
#	83373
#	101141
#	117422
#	132884
#	150103
#	179205
#	183140
#
# Disc length: 2445 seconds
#
# Revision: 0
# Processed by: cddbd v1.5.2PL0 Copyright (c) Steve Scherf et al.
# Submitted via: CDex 1.70beta2
#
DISCID=8e098b0c
DTITLE=Beau - music
DYEAR=2006
DGENRE=Blues
TTITLE0=รักแท้หรือแค่เหงา
TTITLE1=50-50
TTITLE2=ฝากตามเขาที
TTITLE3=เสียการทรงตัว
TTITLE4=ไม่ได้ตั้งใจ
TTITLE5=หนึ่งในไม่กี่คน
TTITLE6=อยากจะดีกว่านี้
TTITLE7=สิบปาก
TTITLE8=เงียบสงบสยบเคลื่อนไหว
TTITLE9=คนกลางกลาง
TTITLE10=Data11
TTITLE11=Data12
EXTD=YEAR: 2006
EXTT0=
EXTT1=
EXTT2=
EXTT3=
EXTT4=
EXTT5=
EXTT6=
EXTT7=
EXTT8=
EXTT9=
EXTT10=
EXTT11=
PLAYORDER=
